<svg version="1" xmlns="http://www.w3.org/2000/svg" width="372" height="372" viewBox="0 0 279.000000 279.000000"><path d="M18.2 14.5c-1.7.8-3.7 2.6-4.2 4-.6 1.6-1 21.3-1 50.6V117h93V83h20.9c18.1 0 21.8.3 27.4 2 12.1 3.7 19.6 13.1 21.2 26.2l.7 5.8H270v-3.8c-.1-4.2-1.4-14.2-3-21.7-3.1-15.1-12.9-32.3-25.5-44.9-14.7-14.8-32.6-23.7-56.7-28.5-20-3.9-27.7-4.3-96.3-4.7-57.1-.3-67.5-.2-70.3 1.1zM13 156.5V167h93v-21H13v10.5zM176 156.5V167h94v-21h-94v10.5zM13 209.5v5.5h243.6l1.9-3.8c1.1-2 2.3-4.5 2.7-5.5.7-1.6-5.6-1.7-123.7-1.7H13v5.5zM15 261.6c0 .3 1.6 1.2 3.5 2 4.9 2 119.7 1.9 141-.2 7.7-.8 14.7-1.5 15.5-1.8.8-.2-34.8-.4-79.2-.5-44.5 0-80.8.1-80.8.5z"/></svg>